PathFileType	4	(X/Y/Z)	D:\MotionData\Pi-Spi Study\20230118_AMCsubject1\Trimmed_right_horiz_add01_rotated.trc
DataRate	CameraRate	NumFrames	NumMarkers	Units	OrigDataRate	OrigDataStartFrame	OrigNumFrames
200.00	200.00	       12	35	mm	200.00	101	       200
Frame#	Time	C7			Sternum			r_AMC1			r_AMC2			r_AMC3			l_AMC1			l_AMC2			l_AMC3			PX			T8			r_humerous			r_elbow_medial			r_elbow_lateral			r_forearm			r_wrist_radius			r_wrist_ulna			r_MCP_1			r_MCP_3			l_humerous			l_elbow_medial			l_elbow_lateral			l_forearm			l_wrist_radius			l_wrist_ulna			l_MCP_1			l_MCP_3			r_ASIS			r_PSIS			l_ASIS			l_PSIS			r_IC			l_IC			TS			AI			AA			
		X1	Y1	Z1	X2	Y2	Z2	X3	Y3	Z3	X4	Y4	Z4	X5	Y5	Z5	X6	Y6	Z6	X7	Y7	Z7	X8	Y8	Z8	X9	Y9	Z9	X10	Y10	Z10	X11	Y11	Z11	X12	Y12	Z12	X13	Y13	Z13	X14	Y14	Z14	X15	Y15	Z15	X16	Y16	Z16	X17	Y17	Z17	X18	Y18	Z18	X19	Y19	Z19	X20	Y20	Z20	X21	Y21	Z21	X22	Y22	Z22	X23	Y23	Z23	X24	Y24	Z24	X25	Y25	Z25	X26	Y26	Z26	X27	Y27	Z27	X28	Y28	Z28	X29	Y29	Z29	X30	Y30	Z30	X31	Y31	Z31	X32	Y32	Z32	X33	Y33	Z33	X34	Y34	Z34	X35	Y35	Z35	

101	0.5	163.6359	1373.9065	-219.1769	300.7557	1315.4263	-213.4311	180.9304	1357.3378	-60.2597	218.6813	1388.6613	-56.635	213.0412	1402.701	-98.2815	185.7841	1318.9647	-381.7769	225.11	1315.6597	-414.4619	244.6276	1354.7698	-384.5207	368.2198	1126.0884	-205.518	133.1922	1187.0497	-221.1523	370.7443	1362.2069	-148.4864	490.1573	1276.5366	-186.9335	507.8356	1330.4	-159.6178	638.8821	1353.8734	-268.1748	687.7466	1326.6819	-318.5916	678.222	1376.745	-326.964	749.0453	1341.3424	-378.3662	744.6487	1389.1531	-378.558	318.5021	1127.4211	-403.3683	249.6554	993.1559	-390.2426	270.9576	991.9865	-441.138	334.6722	847.6751	-460.4448	381.7181	779.307	-438.8546	339.943	770.5849	-455.1995	399.522	702.2208	-448.8803	352.196	696.259	-460.859	337.9574	909.6334	-69.7657	157.2604	927.9526	-166.1328	359.439	891.7851	-327.133	166.1518	920.7463	-268.352	252.7289	970.3737	-46.6949	272.6067	939.0471	-372.6401	92.2554	1297.4294	-103.9136	121.7835	1209.3291	-61.8483	169.3735	1363.6696	-0.83845
102	0.505	163.6283	1373.8992	-219.193	300.7685	1315.3723	-213.4737	180.9596	1357.3143	-60.2829	218.718	1388.5725	-56.5678	213.0592	1402.6959	-98.3079	185.722	1319.0565	-381.7612	225.1119	1315.6466	-414.4799	244.6406	1354.7786	-384.5229	368.2217	1126.0706	-205.5582	133.172	1187.0568	-221.1598	370.7518	1362.2535	-148.453	490.1656	1276.5292	-186.9463	507.8314	1330.3729	-159.6261	638.907	1353.7615	-268.1869	687.8176	1326.5392	-318.5651	678.2844	1376.6625	-326.9622	749.1024	1341.1902	-378.3652	744.6803	1389.1063	-378.5649	318.5411	1127.3933	-403.4156	249.6719	993.1516	-390.2514	270.9753	991.9782	-441.1643	334.407	847.481	-460.29	381.7416	779.2939	-438.8474	339.9814	770.6584	-455.2659	399.5532	702.2397	-448.892	352.2049	696.2532	-460.8538	337.9781	909.5839	-69.7736	157.2382	927.9535	-166.1406	359.427	891.7708	-327.1425	166.1553	920.7224	-268.3854	252.7546	970.399	-46.6816	272.7616	938.9414	-372.5509	92.259	1297.439	-103.9269	121.7285	1209.0999	-61.8748	169.3845	1363.6609	-0.84459
103	0.51	163.652	1373.9055	-219.1984	300.7754	1315.3694	-213.4625	180.9585	1357.3129	-60.3037	218.7703	1388.5446	-56.5374	213.0978	1402.684	-98.2977	185.67	1318.8765	-381.2886	225.106	1315.6622	-414.4869	244.6249	1354.7854	-384.5336	368.2266	1126.0908	-205.5672	133.1772	1187.0576	-221.1668	370.8188	1362.1915	-148.4843	490.8105	1276.9197	-186.6883	507.8652	1330.3524	-159.6477	638.918	1353.73	-268.2159	687.8032	1326.5409	-318.6015	678.3285	1376.6134	-326.9481	749.1312	1341.2012	-378.3695	744.723	1389.072	-378.5572	318.4987	1127.407	-403.4228	249.6707	993.1698	-390.2775	271.0274	992.033	-441.1978	334.764	847.6289	-460.429	381.7642	779.2963	-438.8462	340.0347	770.5576	-455.2053	399.579	702.2327	-448.877	352.2622	696.2644	-460.8697	337.9901	909.6241	-69.7918	157.26	927.9658	-166.1243	359.4666	891.7911	-327.1384	166.1364	920.751	-268.3722	252.7348	970.468	-46.7033	272.7097	939.0274	-372.5628	92.272	1297.4348	-103.9176	121.8092	1209.3359	-61.883	169.425	1363.6682	-0.87455
104	0.515	163.6523	1373.9082	-219.1899	300.7954	1315.3414	-213.4878	180.9887	1357.3069	-60.3032	218.8062	1388.5002	-56.4967	213.0633	1402.6939	-98.3198	185.7351	1318.9813	-381.7571	225.0917	1315.6325	-414.5154	244.6098	1354.7606	-384.5591	368.2076	1126.0559	-205.5797	133.183	1187.0559	-221.1812	370.8122	1362.1945	-148.4879	490.8338	1276.8918	-186.7193	507.8753	1330.3156	-159.6771	638.9495	1353.6306	-268.193	687.889	1326.4534	-318.5723	678.3885	1376.5334	-326.9782	749.2114	1341.0514	-378.3899	744.7671	1388.9488	-378.5411	318.5364	1127.3315	-403.4032	249.7024	993.1602	-390.274	270.9902	991.974	-441.1828	334.8419	847.5566	-460.4304	381.8091	779.2989	-438.8415	340.0381	770.6046	-455.2229	399.6429	702.2291	-448.8794	352.3032	696.2344	-460.8621	337.9643	909.5999	-69.7781	157.2608	927.9804	-166.1107	359.4502	891.7809	-327.1508	166.1396	920.7366	-268.3803	252.814	970.3632	-46.7147	272.6493	938.9933	-372.6252	92.2814	1297.4332	-103.9506	121.8094	1209.3118	-61.9099	169.4158	1363.6986	-0.85391
105	0.52	163.6626	1373.9072	-219.2044	300.7928	1315.3276	-213.5026	180.9809	1357.3081	-60.3217	218.8515	1388.5433	-56.6115	213.1309	1402.6633	-98.3106	185.6856	1319.0419	-381.7189	225.0904	1315.6409	-414.5171	244.6071	1354.7738	-384.5707	368.224	1126.0151	-205.6004	133.1819	1187.0625	-221.1845	370.8089	1362.2065	-148.5075	490.8856	1276.8429	-186.7841	507.8733	1330.2607	-159.6817	638.9744	1353.5889	-268.198	687.9225	1326.4336	-318.5836	678.4192	1376.5024	-326.9658	749.2559	1340.9811	-378.3733	744.7941	1388.9342	-378.5287	318.4877	1127.4067	-403.432	249.681	993.1576	-390.2795	270.9997	991.9637	-441.1769	334.851	847.5841	-460.4218	381.8193	779.2918	-438.85	340.0457	770.6633	-455.2476	399.6745	702.2374	-448.8728	352.328	696.2496	-460.8648	338.0073	909.6087	-69.8139	157.2477	928.0009	-166.1143	359.4381	891.7642	-327.171	166.1424	920.7589	-268.3691	252.8067	970.4198	-46.721	272.8315	938.9209	-372.5254	92.3122	1297.4484	-103.9515	121.8036	1209.3264	-61.9242	169.4313	1363.6799	-0.90729
106	0.525	163.6736	1373.9086	-219.236	300.7767	1315.305	-213.4851	181.0183	1357.2852	-60.3358	218.8748	1388.4747	-56.483	213.1476	1402.6545	-98.3406	185.6612	1319.0491	-381.78	225.0617	1315.6465	-414.5386	244.6027	1354.7739	-384.588	368.2172	1126.004	-205.6282	133.1921	1187.0554	-221.2057	370.8302	1362.1455	-148.4857	490.8331	1276.881	-186.7706	507.8967	1330.2474	-159.7107	638.9972	1353.5344	-268.1897	688.1163	1325.1365	-318.583	678.4603	1376.4443	-326.9586	749.2814	1340.9217	-378.3928	744.9698	1389.0631	-378.4013	318.5205	1127.3926	-403.4538	249.6953	993.1625	-390.29	270.9916	991.9733	-441.1848	334.8817	847.5602	-460.4353	381.8506	779.3018	-438.8286	340.0888	770.6245	-455.2614	399.701	702.2558	-448.8731	352.3775	696.2428	-460.8581	338.0239	909.5894	-69.8542	157.247	927.9571	-166.1381	359.4202	891.7687	-327.1912	166.1405	920.738	-268.3816	252.7918	970.3996	-46.6997	272.6888	938.9637	-372.6204	92.2923	1297.4382	-103.9701	121.8518	1209.3232	-61.9501	169.4024	1363.5533	-0.87903
107	0.53	163.663	1373.8831	-219.2215	300.8091	1315.332	-213.5378	181.0248	1357.3069	-60.3375	218.9659	1388.4128	-56.5033	213.1715	1402.6381	-98.3201	185.6458	1318.8729	-381.3285	225.074	1315.6487	-414.5697	244.6004	1354.7588	-384.6085	368.2231	1125.9586	-205.6587	133.1865	1187.0775	-221.1905	370.8287	1362.4779	-148.3663	490.8789	1276.8068	-186.8388	507.9008	1330.2166	-159.729	639.0128	1353.4569	-268.1943	688.1528	1325.1366	-318.5863	678.4728	1376.4196	-326.9509	749.3026	1340.8839	-378.4004	744.9804	1389.0222	-378.4191	318.5127	1127.3821	-403.4513	249.6803	993.1528	-390.2583	270.9815	991.9633	-441.1664	334.9427	847.5452	-460.433	381.872	779.3057	-438.8225	340.1124	770.6227	-455.2443	399.7392	702.2577	-448.8629	352.4169	696.2391	-460.8485	338.0144	909.5839	-69.831	157.2649	927.9696	-166.1446	359.4107	891.751	-327.2295	166.1314	920.7813	-268.3634	252.8037	970.4095	-46.7133	272.6983	938.939	-372.5739	92.3186	1297.4597	-103.9403	121.8422	1209.3608	-61.9178	169.5069	1363.6655	-0.92768
108	0.535	163.6747	1373.9041	-219.2345	300.8223	1315.2876	-213.527	181.0402	1357.3173	-60.3533	218.8979	1388.4919	-56.6068	213.1645	1402.6654	-98.3717	185.7225	1318.973	-381.8045	225.036	1315.648	-414.571	244.5802	1354.759	-384.6381	368.1894	1125.9493	-205.6979	133.202	1187.0599	-221.2023	370.8581	1362.1432	-148.5108	490.871	1276.8353	-186.796	507.9339	1330.2053	-159.7513	639.0668	1353.4379	-268.2109	688.1786	1325.0709	-318.5798	678.5399	1376.3156	-326.9829	749.3676	1340.811	-378.3736	745.0399	1388.9408	-378.4111	318.5305	1127.3486	-403.4237	249.7084	993.1551	-390.2832	270.9746	991.9763	-441.1776	334.9345	847.5399	-460.4156	381.9091	779.314	-438.8088	340.137	770.6021	-455.2149	399.7848	702.2662	-448.8409	352.4418	696.2693	-460.8369	338.0398	909.5939	-69.8401	157.2504	927.9701	-166.1396	359.4075	891.7408	-327.2114	166.1336	920.7585	-268.3884	252.8603	970.35	-46.7227	272.7203	938.8978	-372.6283	92.3277	1297.464	-103.9571	121.8603	1209.3554	-61.9466	169.5168	1363.6702	-0.95793
109	0.54	163.6874	1373.9327	-219.2517	300.7895	1315.317	-213.5594	181.0723	1357.2991	-60.3639	218.9382	1388.5076	-56.7009	213.1995	1402.646	-98.3569	185.706	1318.9916	-381.7816	225.0384	1315.6522	-414.5811	244.5602	1354.755	-384.6531	368.1798	1125.9625	-205.7339	133.2046	1187.0837	-221.2058	370.8548	1362.1743	-148.5442	490.8884	1276.7914	-186.8775	507.9239	1330.178	-159.7605	639.0402	1353.4076	-268.2282	688.1741	1325.0389	-318.6412	678.528	1376.3032	-326.9885	749.3818	1340.757	-378.3824	745.047	1388.9199	-378.438	318.4943	1127.4297	-403.4855	249.714	993.1737	-390.2842	271.0042	991.9609	-441.1821	334.9011	847.6077	-460.4135	381.9426	779.3438	-438.8045	340.1359	770.6751	-455.2101	399.8044	702.2766	-448.8511	352.5045	696.2696	-460.8008	338.0018	909.5648	-69.824	157.2925	927.9882	-166.1164	359.4016	891.7688	-327.2492	166.1222	920.7748	-268.3806	252.8336	970.4176	-46.7336	272.6775	938.941	-372.6332	92.362	1297.4686	-103.9868	121.8767	1209.358	-61.9854	169.5511	1363.7001	-0.93746
110	0.545	163.7065	1373.9268	-219.2474	300.8168	1315.3298	-213.5661	181.0825	1357.3027	-60.3714	218.9924	1388.4582	-56.7426	213.1912	1402.6528	-98.3614	185.6679	1319.0007	-381.7691	225.017	1315.6542	-414.5956	244.558	1354.7659	-384.6642	368.2048	1125.9512	-205.7256	133.2048	1187.0623	-221.2144	370.8761	1362.1103	-148.5783	490.8925	1276.8352	-186.86	507.9878	1330.1538	-159.7813	639.0936	1353.3383	-268.2551	688.1914	1325.0232	-318.6432	678.5639	1376.2537	-327.0238	749.435	1340.6914	-378.417	745.0834	1388.8312	-378.4425	318.5257	1127.3495	-403.4779	249.7237	993.1541	-390.2985	270.9952	991.9588	-441.1773	334.9722	847.5414	-460.4316	381.9633	779.3486	-438.7948	340.1784	770.6164	-455.1896	399.8304	702.282	-448.8224	352.5427	696.2939	-460.7868	338.0075	909.6058	-69.8414	157.26	927.9786	-166.1361	359.4069	891.7673	-327.2608	166.1119	920.757	-268.3935	252.8684	970.383	-46.7526	272.7711	938.8445	-372.5921	92.3783	1297.4553	-103.9711	121.8729	1209.3837	-61.9233	169.5687	1363.6939	-0.97218
111	0.55	163.7247	1373.923	-219.2825	300.7905	1315.3159	-213.6002	181.0947	1357.3033	-60.3934	218.9588	1388.5072	-56.6871	213.2261	1402.649	-98.386	185.6376	1319.0862	-381.8873	225.0067	1315.6656	-414.6062	244.5466	1354.7725	-384.6631	368.1826	1125.9712	-205.7362	133.1991	1187.0922	-221.2026	370.869	1362.4293	-148.4947	490.9371	1276.7656	-186.944	507.9731	1330.1337	-159.7942	639.1023	1353.3246	-268.2555	688.1931	1324.9488	-318.6346	678.5911	1376.2242	-327.0381	749.4449	1340.6664	-378.3707	745.1195	1388.7966	-378.4547	318.4544	1127.496	-403.5354	249.7067	993.1616	-390.2763	270.9874	991.9522	-441.1749	334.9393	847.5932	-460.4047	381.969	779.3594	-438.7903	340.1701	770.6899	-455.183	399.8703	702.3213	-448.8242	352.5941	696.3012	-460.7772	338.0131	909.5983	-69.8775	157.2598	928.0033	-166.1259	359.3985	891.7582	-327.261	166.1276	920.7582	-268.3798	252.8402	970.4117	-46.7249	272.6958	938.9075	-372.6266	92.3944	1297.4832	-103.9672	121.8932	1209.3385	-61.9873	169.604	1363.713	-0.96541
112	0.555	163.7114	1373.9099	-219.2731	300.8064	1315.3249	-213.606	181.1401	1357.3038	-60.4083	218.9454	1388.592	-56.7785	213.2294	1402.6408	-98.3738	185.6727	1318.9889	-381.8716	224.9757	1315.6666	-414.6126	244.521	1354.7654	-384.6716	368.2487	1125.9769	-205.8062	133.2073	1187.0885	-221.202	370.9382	1362.054	-148.6392	490.9067	1276.8048	-186.9218	507.9856	1330.1227	-159.8206	639.0967	1353.3102	-268.2762	688.0512	1326.1736	-318.6815	678.5848	1376.208	-327.0559	749.4619	1340.6521	-378.3864	745.1413	1388.6924	-378.4696	318.4812	1127.4266	-403.5021	249.6959	993.1439	-390.2549	270.9801	991.9517	-441.1695	334.8976	847.6578	-460.4386	382.0216	779.3707	-438.785	340.2139	770.587	-455.1223	399.8965	702.3184	-448.8048	352.6091	696.3076	-460.7557	338.036	909.6016	-69.8882	157.2603	927.9918	-166.1348	359.37	891.7559	-327.2918	166.1217	920.7628	-268.3973	252.8792	970.4052	-46.7704	272.7239	938.8812	-372.693	92.3915	1297.4924	-103.9603	121.9017	1209.3369	-61.9645	169.6531	1363.7184	-0.97683
